# xmcd
#
# Track frame offsets:
#	150
#	22572
#	46348
#	69324
#	89995
#	112818
#	128973
#	152380
#	175467
#	195034
#	210339
#	232406
#	259928
#	279332
#	300129
#	313978
#
# Disc length: 4414 seconds
#
# Revision: 2
# Processed by: cddbd v1.4PL0 Copyright (c) Steve Scherf et al.
# Submitted via: CDmax 2.0
#
DISCID=cd113c10
DTITLE=Various Artist - Best of Miss Butch Blues
DYEAR=1999
DGENRE=Blues
TTITLE0=Peggy Scott-Adams and Jimmy Lewis - See You Next Weekend
TTITLE1=Peggy Scott-Adams - Bill
TTITLE2=Jimmy Lewis - Too Many Little Shoes
TTITLE3=Peggy Scott-Adams - Leave Me Alone
TTITLE4=Chuck Strong - She's Not the Cheating Kind
TTITLE5=Peggy Scott-Adams - Whatcha' Doing To Me
TTITLE6=Jimmy Lewis - Betty This, Betty That
TTITLE7=Chuck Strong and Jimmy Lewis - That Ain't the Way To Do It
TTITLE8=Billy Ray Charles - I Been Partying All Night
TTITLE9=Jimmy Lewis and Little Richard - Hold On To What You Got
TTITLE10=Peggy Scott-Adams - Spousal Abuse
TTITLE11=Billy Ray Charles - What's the Matter With the Blues
TTITLE12=Peggy Scott-Adams - Help Yourself
TTITLE13=Peggy Scott-Adams - I'm Getting What I Want
TTITLE14=Jimmy Lewis - Still Wanna Be Black Again
TTITLE15=Jamie Williams - Bob (Tell It To My Lawyer)
EXTD=LABEL =Miss Butch Records\nID =MB4010\nUPC =096094-4010-21\nCOPYRIGHT
EXTD==1999
EXTT0=
EXTT1=
EXTT2=
EXTT3=
EXTT4=
EXTT5=
EXTT6=
EXTT7=
EXTT8=
EXTT9=
EXTT10=
EXTT11=
EXTT12=
EXTT13=
EXTT14=
EXTT15=
PLAYORDER=
